<?xml version="1.0" encoding="UTF-8" standalone="no"?>
<svg
   id="Layer_1"
   viewBox="0 0 400.56113 542.73505"
   version="1.1"
   sodipodi:docname="columbo-logo-draft.svg"
   width="400.56113"
   height="542.73505"
   inkscape:version="1.2.2 (b0a8486541, 2022-12-01)"
   xmlns:inkscape="http://www.inkscape.org/namespaces/inkscape"
   xmlns:sodipodi="http://sodipodi.sourceforge.net/DTD/sodipodi-0.dtd"
   xmlns="http://www.w3.org/2000/svg"
   xmlns:svg="http://www.w3.org/2000/svg">
  <sodipodi:namedview
     id="namedview322"
     pagecolor="#505050"
     bordercolor="#eeeeee"
     borderopacity="1"
     inkscape:showpageshadow="0"
     inkscape:pageopacity="0"
     inkscape:pagecheckerboard="0"
     inkscape:deskcolor="#505050"
     showgrid="false"
     inkscape:zoom="1.0065886"
     inkscape:cx="96.861818"
     inkscape:cy="328.33673"
     inkscape:window-width="1916"
     inkscape:window-height="1042"
     inkscape:window-x="0"
     inkscape:window-y="0"
     inkscape:window-maximized="1"
     inkscape:current-layer="Layer_1" />
  <defs
     id="defs184">
    <style
       id="style179">.cls-1,.cls-2,.cls-3{fill:none;}.cls-4,.cls-5{fill:#0095a3;}.cls-6{fill:#67cfe3;}.cls-7,.cls-8{fill:#fff;}.cls-9,.cls-10{fill:#f36c30;}.cls-11,.cls-12{fill:#8eb230;}.cls-13{fill:#dfcaa3;}.cls-14{fill:#231f20;}.cls-2,.cls-15,.cls-5,.cls-16,.cls-10,.cls-17,.cls-8,.cls-12{stroke:#fff;stroke-linejoin:round;stroke-width:4px;}.cls-3{clip-path:url(#clippath);}.cls-15{fill:#6c8b23;}.cls-16{fill:#007b84;}.cls-17{fill:#f6921e;}</style>
    <clipPath
       id="clippath">
      <path
         class="cls-9"
         d="m 676.19,405.36 -25.53,-25.59 c -6.5,-6.5 -22.18,9.77 -15.97,15.97 0.03,0.03 25.53,25.59 25.53,25.59 2.64,2.63 8.36,1.19 12.75,-3.23 4.41,-4.4 5.85,-10.11 3.22,-12.74 z"
         id="path181" />
    </clipPath>
  </defs>
  <path
     class="cls-4"
     d="m 250.28114,193.33509 c -6.3,-3.8 -13.7,-6 -21.6,-6 -22.9,0 -41.5,18.6 -41.5,41.5 0,15 8,28.2 20,35.5 6.3,3.8 13.6,6 21.5,6 22.9,0 41.5,-18.6 41.5,-41.5 0,-15 -8,-28.2 -19.9,-35.5 z"
     id="path186" />
  <path
     class="cls-4"
     d="m 141.58114,258.73509 c 0,-15 -8,-28.2 -19.9,-35.4 -6.3,-3.8 -13.7,-6 -21.6,-6 -22.900001,0 -41.500001,18.6 -41.500001,41.5 0,15 8,28.2 20,35.5 6.3,3.8 13.6,6 21.500001,6 22.9,-0.1 41.5,-18.7 41.5,-41.6 z"
     id="path188" />
  <path
     class="cls-4"
     d="m 155.58114,340.03509 c 2.4,4.6 5.6,8.5 9.5,8.5 0.8,0 1.6,-0.2 2.5,-0.5 4,-1.6 4.2,-8.6 3.2,-15.3 -5.8,1.9 -10.8,4.7 -15.2,7.3 z"
     id="path190" />
  <path
     class="cls-4"
     d="m 353.98114,362.73509 v -0.2 c -1.7,-12.2 -6.9,-17.7 -11.5,-22.5 -4.3,-4.5 -8.3,-8.8 -7,-16.6 1.2,-7.2 6.9,-11.7 16.3,-12.8 -5.7,-38.5 -14,-87.1 -24.8,-128.5 -5.4,-20.7 -13.8,-35.1 -25.2,-44.6 -13,6.7 -28.6,14 -46.1,21.5 -12.6,5.5 -25.6,10.8 -38,15.7 -10,10.7 -20.9,21.2 -27.5,24.3 -4.8,2.1 -9,3 -12.7,3 -8,0 -13.3,-4 -15.9,-7.5 -3,0.8 -5.4,1.3 -7.1,1.5 -2,0.2 -4.8,0.5 -8.4,0.7 1.4,3.6 0.8,7.9 -1.8,11.1 -2.9,3.5 -7.6,5.3 -14.3,5.3 -9.6,0 -23.3,-3.7 -41.600001,-11.1 -2.7,-1.1 -5.2,-2.1 -7.4,-2.9 h -4.2 c -17.5,0 -31.1,-0.5 -41.8,-1.4 -11.7,24.3 -6.6,51.2 -2.3,73.4 4.1,21.3 18.4,59.2 31.6,91.8 4.9,12.1 9.7,23.4 13.7,32.9 35.800001,3.2 81.800001,5.1 131.900001,5.1 59.6,0 113.3,-2.7 151.1,-7 -3,-11.4 -6.4,-27.2 -7,-31.2 z m -275.400001,-68.5 c -12,-7.3 -20,-20.4 -20,-35.5 0,-22.9 18.6,-41.5 41.500001,-41.5 7.9,0 15.3,2.2 21.6,6 11.9,7.3 19.9,20.4 19.9,35.4 0,22.9 -18.6,41.5 -41.5,41.5 -7.800001,0.1 -15.200001,-2.1 -21.500001,-5.9 z m 144.600001,34.2 c -4.3,1.9 -10.5,2.7 -20.4,2.8 0,0.9 0.1,1.7 0.1,2.3 0.4,5.7 -0.9,10.2 -4,13.5 -2.8,3 -6.8,4.6 -11.3,4.6 -2,0 -4.1,-0.3 -5.7,-0.9 -1.8,-0.7 -3.3,-1.8 -4.7,-3.6 -1.3,3.7 -3.6,6.3 -6.9,7.7 -1.7,0.7 -3.4,1.1 -5.2,1.1 -6.1,0 -11.4,-4.2 -15.7,-12.1 -0.6,0.3 -1.2,0.7 -1.7,1 -3,1.6 -6.6,2.4 -10.4,2.4 -7.3,0 -14.1,-2.8 -18.2,-7.6 -3.4,-3.9 -4.8,-8.9 -4.1,-14.1 2.2,-15.9 23.2,-22.3 25.6,-23 l 4.9,-1.4 3.3,3.9 c 0.4,0.5 2.8,2.8 11.8,2.8 3.4,0 7.3,-0.3 11.7,-1 14.4,-2.3 19.9,-13.8 20.3,-14.5 l 2,-4.7 h 5.2 c 31.2,0.3 36,14 36.8,18.2 1.4,9.8 -3.5,18.3 -13.4,22.6 z m 5.5,-58.1 c -7.9,0 -15.2,-2.2 -21.5,-6 -12,-7.3 -20,-20.4 -20,-35.5 0,-22.9 18.6,-41.5 41.5,-41.5 7.9,0 15.3,2.2 21.6,6 11.9,7.3 19.9,20.4 19.9,35.4 0,23 -18.6,41.6 -41.5,41.6 z"
     id="path192" />
  <path
     class="cls-4"
     d="m 199.48114,295.43509 c 0,0 -7,16 -26.2,19 -5,0.8 -9.3,1.1 -12.9,1.1 -10.3,0 -15.3,-2.7 -17.8,-5.6 0,0 -18.4,5.3 -20,16.6 -1.2,8.5 7.2,12.8 14.6,12.8 2.5,0 4.9,-0.5 6.7,-1.5 7.4,-4 18.4,-12.6 33.2,-14.5 1.3,-0.2 3.2,-0.2 5.4,-0.2 5,0 11.9,0.3 18.6,0.3 7.6,0 14.9,-0.4 18.9,-2.2 9.1,-4 9.1,-10.7 8.5,-14.1 -0.6,-3.8 -6.1,-11.5 -29,-11.7 z"
     id="path194" />
  <path
     class="cls-4"
     d="m 195.48114,331.13509 c -1.7,0 -3.5,0 -5.2,-0.1 -2.9,-0.1 -5.5,-0.1 -7.8,-0.1 -1.8,0 -3.2,0 -4.3,0.2 1.7,6.1 3.9,12 6.2,12.9 0.7,0.2 1.8,0.5 3.2,0.5 3.7,0 8.8,-1.8 8.1,-10.4 -0.1,-0.9 -0.1,-1.9 -0.2,-3 z"
     id="path196" />
  <path
     class="cls-1"
     d="m 34.781139,159.73509 c 0,0 -0.2,-0.9 -0.5,-2.4 -0.3,-1.5 -0.7,-3.7 -1.2,-6.2 -0.2,-1.2 -0.4,-2.6 -0.5,-3.9 -0.1,-1.3 -0.1,-2.8 0.2,-3.8 0.1,-0.5 0.3,-0.9 0.5,-1.1 0.2,-0.2 0.3,-0.2 0.6,-0.3 h 0.2 l 0.3,-0.1 c 0.1,0 0,0.1 0,0.1 h -0.2 0.2 c 0.3,0.1 0.8,0.4 1.3,0.7 1,0.7 2.1,1.9 3.1,3.1 1,1.2 2,2.5 2.9,3.7 1.9,2.5 3.6,5 5.1,7.1 1.5,2.1 2.8,3.9 3.8,5.1 0.9,1.2 1.5,1.9 1.5,1.9 0,0 0,-0.2 -0.1,-0.6 -0.1,-0.4 -0.1,-1 -0.3,-1.8 -0.3,-1.5 -0.8,-3.7 -1.6,-6.3 -0.8,-2.5 -2,-5.5 -3.6,-8.5 -0.8,-1.5 -1.7,-3 -2.8,-4.5 -1.1,-1.5 -2.4,-3 -4.1,-4.3 -0.9,-0.7 -2,-1.3 -3.3,-1.7 -0.4,-0.1 -0.7,-0.2 -1.1,-0.2 h -1.5 c -0.2,0 -0.6,0.1 -0.7,0.1 l -0.3,0.1 -0.3,0.1 -0.4,0.1 -0.1,0.1 -0.2,0.1 c -1.3,0.5 -2.5,1.6 -3.2,2.8 -0.7,1.2 -1,2.4 -1.1,3.5 -0.2,2.2 0.2,3.9 0.7,5.5 0.5,1.6 1.1,3 1.7,4.2 1.2,2.5 2.5,4.3 3.5,5.5 0.5,0.6 0.9,1.1 1.2,1.4 0.1,0.3 0.3,0.5 0.3,0.5 z"
     id="path198" />
  <path
     class="cls-1"
     d="m 281.88114,89.135086 -0.3,-0.5 -0.4,-0.5 c -0.4,-0.6 -1.9,-1.6 -2,-1.6 l -0.2,-0.1 h -0.1 l -0.3,-0.1 h -0.1 l -0.4,-0.1 -0.8,-0.3 c -0.6,-0.2 -1.2,-0.3 -1.8,-0.4 -0.6,-0.1 -1.3,-0.1 -1.9,-0.1 -0.6,0 -1.3,0.1 -1.9,0.2 -2.5,0.4 -4.8,1.7 -6.5,3.2 -1.7,1.5 -3,3.1 -4.1,4.8 -2.1,3.3 -3.3,6.700004 -4.1,9.600004 -0.8,2.9 -1.1,5.3 -1.2,7.1 -0.1,0.9 -0.1,1.5 -0.1,2 v 0.7 c 0,0 0.5,-0.9 1.3,-2.4 0.8,-1.5 2,-3.6 3.4,-6 1.4,-2.4 3.2,-5.200004 5.2,-7.700004 1,-1.2 2.2,-2.4 3.4,-3.3 1.2,-0.9 2.5,-1.5 3.7,-1.7 0.3,0 0.6,-0.1 0.9,-0.1 0.3,0 0.6,0 1,0.1 0.3,0.1 0.7,0.1 1,0.2 l 0.8,0.2 0.3,0.1 h 0.1 c 0,0 0.1,0.1 0.1,0.2 0.2,0.3 0.3,0.9 0.4,1.6 0.1,1.4 -0.1,3 -0.3,4.5 -0.3,1.500004 -0.6,3.000004 -0.9,4.400004 -0.6,2.7 -1.3,5.1 -1.7,6.7 -0.4,1.6 -0.6,2.6 -0.6,2.6 0,0 0.7,-0.7 1.8,-2.1 1.1,-1.3 2.5,-3.3 4,-6 0.7,-1.3 1.4,-2.8 2.1,-4.400004 0.6,-1.7 1.2,-3.5 1.4,-5.7 0.1,-1.1 0,-2.4 -0.4,-3.8 -0.4,-0.6 -0.6,-1 -0.8,-1.3 z"
     id="path200" />
  <path
     class="cls-1"
     d="m 58.681139,258.73509 c 0,-22.9 18.6,-41.5 41.500001,-41.5 7.9,0 15.2,2.2 21.5,6 -6.3,-3.8 -13.7,-6 -21.6,-6 -22.900001,0 -41.500001,18.6 -41.400001,41.5 -0.1,15 7.9,28.2 19.9,35.4 -11.9,-7.2 -19.9,-20.4 -19.9,-35.4 z"
     id="path202" />
  <path
     class="cls-1"
     d="m 207.18114,264.33509 c -11.9,-7.3 -19.9,-20.4 -19.9,-35.4 0,-22.9 18.6,-41.5 41.5,-41.5 7.9,0 15.2,2.2 21.5,6 -6.3,-3.8 -13.7,-6 -21.6,-6 -22.9,0 -41.5,18.6 -41.5,41.5 0,14.9 8,28.1 20,35.4 z"
     id="path204" />
  <path
     class="cls-13"
     d="m 48.781139,407.13509 c 9.7,0 16.6,-5.3 21.4,-12.2 -5.5,-12.8 -14.5,-34.2 -23.1,-56.9 -2.3,2 -5,5 -7.9,9.5 -7.2,11.2 -13.2,37.3 -5.7,51 3.1,5.8 8.1,8.6 15.3,8.6 z"
     id="path206" />
  <path
     class="cls-7"
     d="m 187.28114,228.83509 c 0,15 8,28.2 19.9,35.4 6.3,3.8 13.6,6 21.5,6 22.9,0 41.5,-18.6 41.5,-41.5 0,-15 -8,-28.2 -19.9,-35.4 -6.3,-3.8 -13.6,-6 -21.5,-6 -22.9,0 -41.5,18.6 -41.5,41.5 z m 48.9,13.9 c 0,7.2 -5.9,13.1 -13.1,13.1 -7.2,0 -13.1,-5.9 -13.1,-13.1 0,-7.2 5.9,-13.1 13.1,-13.1 7.3,0 13.1,5.8 13.1,13.1 z"
     id="path208" />
  <path
     class="cls-7"
     d="m 58.681139,258.73509 c 0,15 8,28.2 19.9,35.4 6.3,3.8 13.6,6 21.500001,6 22.9,0 41.5,-18.6 41.5,-41.5 0,-15 -8,-28.2 -19.9,-35.4 -6.3,-3.8 -13.6,-6 -21.5,-6 -22.900001,0 -41.500001,18.6 -41.500001,41.5 z m 50.800001,14.6 c 0,7.2 -5.9,13.1 -13.100001,13.1 -7.2,0 -13.1,-5.9 -13.1,-13.1 0,-7.2 5.9,-13.1 13.1,-13.1 7.200001,0 13.100001,5.9 13.100001,13.1 z"
     id="path210" />
  <circle
     class="cls-14"
     cx="96.481133"
     cy="273.33508"
     r="13.1"
     id="circle212" />
  <circle
     class="cls-14"
     cx="223.18115"
     cy="242.73508"
     r="13.1"
     id="circle214" />
  <path
     class="cls-11"
     d="m 60.481139,192.53509 c -1.4,-0.3 -2.3,-0.4 -2.6,-0.4 -5.5,0.3 -10.6,-3.5 -11.6,-9.1 -0.1,-0.6 -0.1,-1.1 -0.2,-1.7 -3,1.7 -6,3.5 -8.8,5.5 l -5,3.5 -3.7,-4.8 c -1.1,-1.5 -6.2,-8.4 -10.9,-17.5 -8.9000002,4.2 -15.8000002,8.8 -17.50000017,13.1 -0.3,0.8 -0.2,1.3 0.1,1.7 1.49999997,2.1 10.10000017,8.6 60.20000017,9.7 z"
     id="path216" />
  <path
     class="cls-11"
     d="m 297.48114,110.53509 c -1.7,9.9 -4.9,20.8 -7,23.8 l -2,2.8 c 9,-4.4 17.1,-8.6 23.9,-12.4 23.7,-13.3 26.7,-19.1 27,-20.6 0.2,-1 0,-1.3 -0.1,-1.4 -0.3,-0.3 -1.9,-1.9 -9.4,-1.9 -8.2,0 -19.7,1.9 -31.6,4.5 -0.2,1.6 -0.5,3.3 -0.8,5.2 z"
     id="path218" />
  <path
     class="cls-11"
     d="m 288.28114,137.23509 -3.4,-0.3 c -0.1,0 -6.3,-0.5 -14.9,-0.5 -8.6,0 -20.5,0.5 -30.1,2.8 1.8,3.8 1.4,8.5 -1.5,11.9 -2.3,2.8 -6.3,7.5 -11.1,12.9 8.4,-3.4 17.1,-7.1 25.8,-10.8 12.9,-5.5 24.7,-11 35.2,-16 z"
     id="path220" />
  <path
     class="cls-11"
     d="m 60.981139,127.23509 c 10.2,2.8 21.7,4.2 34.3,4.2 48.800001,0 102.400001,-21.1 123.300001,-30.2 l 1.3,-0.6 c -0.2,-3.100004 0.1,-6.500004 0.8,-9.900004 1.3,-6.1 4,-11.2 7.2,-14.6 -0.6,-2.3 -1.1,-4 -1.5,-4.9 -6.9,-3.7 -64.2,-25 -94.1,-25 -3,0 -5.6,0.2 -7.7,0.7 -26.500001,5.4 -66.700001,51.4 -68.100001,57.900004 -0.4,2.8 -0.3,11.7 0,21.2 z"
     id="path222" />
  <path
     class="cls-11"
     d="m 164.48114,178.33509 c 4.4,-2.8 10,-2.1 13.6,1.3 0.6,-0.1 1.5,-0.3 2.9,-1 5.5,-2.6 25.3,-23.7 40.3,-41.8 0.5,-0.7 1.1,-1.2 1.8,-1.7 -34.3,14.8 -82.3,31.1 -128.000001,31.1 -7.3,0 -14.3,-0.4 -20.8,-1.3 l 1,3 -5.7,2.2 c 0,0 -1,0.4 -2.7,1.1 7.4,1.7 17.3,5.1 29.8,10.1 22.900001,9.2 31.600001,9.6 33.800001,9.5 3.1,-1.6 6.9,-1.7 10.1,-0.1 5.9,-0.4 10.5,-0.7 13.3,-1 1.3,-0.1 3.1,-0.5 5.5,-1.1 -0.3,-4.1 1.5,-8 5.1,-10.3 z"
     id="path224" />
  <path
     class="cls-9"
     d="m 221.08114,107.03509 c -0.7,0.3 -1.4,0.6 -2.1,0.9 -0.2,0.1 -0.3,0.1 -0.5,0.2 -0.7,0.3 -1.4,0.6 -2.2,0.9 -0.1,0.1 -0.3,0.1 -0.4,0.2 -0.7,0.3 -1.4,0.6 -2.1,0.9 -0.1,0.1 -0.3,0.1 -0.4,0.2 -0.8,0.3 -1.6,0.7 -2.4,1 -0.2,0.1 -0.4,0.1 -0.5,0.2 -0.9,0.3 -1.7,0.7 -2.6,1 v 0 c -0.9,0.4 -1.8,0.7 -2.7,1.1 -0.2,0.1 -0.4,0.2 -0.6,0.2 -0.9,0.4 -1.9,0.7 -2.8,1.1 -0.1,0.1 -0.3,0.1 -0.4,0.2 -0.9,0.3 -1.8,0.7 -2.7,1 -0.2,0.1 -0.3,0.1 -0.5,0.2 -1,0.4 -2,0.7 -3,1.1 -0.2,0.1 -0.4,0.2 -0.6,0.2 -1,0.4 -2.1,0.7 -3.1,1.1 h -0.1 c -1.1,0.4 -2.2,0.8 -3.3,1.1 -0.2,0.1 -0.5,0.2 -0.7,0.2 -1.1,0.4 -2.2,0.8 -3.3,1.1 -0.1,0 -0.3,0.1 -0.5,0.1 -1,0.3 -2.1,0.7 -3.1,1 -0.2,0.1 -0.4,0.1 -0.6,0.2 -1.1,0.4 -2.3,0.7 -3.5,1.1 -0.2,0.1 -0.5,0.1 -0.7,0.2 -1.1,0.4 -2.3,0.7 -3.5,1.1 q -0.1,0 -0.2,0.1 c -1.2,0.4 -2.4,0.7 -3.7,1.1 -0.3,0.1 -0.5,0.2 -0.8,0.2 -1.2,0.4 -2.5,0.7 -3.7,1 -0.2,0 -0.3,0.1 -0.5,0.1 -1.2,0.3 -2.3,0.6 -3.5,0.9 -0.2,0.1 -0.5,0.1 -0.7,0.2 -1.3,0.3 -2.5,0.6 -3.8,1 -0.3,0.1 -0.5,0.1 -0.8,0.2 -1.2,0.3 -2.5,0.6 -3.7,0.9 -0.1,0 -0.2,0.1 -0.3,0.1 -1.3,0.3 -2.6,0.6 -3.9,0.9 -0.3,0.1 -0.6,0.1 -0.9,0.2 -1.3,0.3 -2.6,0.6 -4,0.8 -0.2,0 -0.3,0.1 -0.5,0.1 -1.2,0.2 -2.5,0.5 -3.7,0.7 -0.3,0 -0.5,0.1 -0.8,0.1 -1.3,0.2 -2.6,0.5 -4,0.7 -0.3,0 -0.5,0.1 -0.8,0.1 -1.3,0.2 -2.5,0.4 -3.8,0.6 -0.1,0 -0.3,0 -0.4,0.1 -1.3,0.2 -2.7,0.4 -4.1,0.6 -0.3,0 -0.6,0.1 -0.9,0.1 -1.4,0.2 -2.7,0.3 -4.1,0.5 h -0.4 c -1.3,0.1 -2.5,0.3 -3.8,0.4 -0.3,0 -0.5,0.1 -0.8,0.1 -1.3,0.1 -2.7,0.2 -4,0.3 -0.3,0 -0.5,0 -0.8,0.1 -1.3,0.1 -2.5,0.2 -3.8,0.2 h -0.5 c -1.4,0.1 -2.7,0.1 -4,0.2 h -0.900001 c -1.4,0 -2.7,0.1 -4.1,0.1 h -0.4 c -1.3,0 -2.6,0 -3.9,-0.1 h -0.8 c -1.3,0 -2.7,-0.1 -4,-0.2 h -0.8 c -1.3,-0.1 -2.6,-0.2 -3.8,-0.3 h -0.3 c -1.3,-0.1 -2.7,-0.3 -4,-0.4 -0.3,0 -0.6,-0.1 -0.9,-0.1 -1.3,-0.2 -2.6,-0.3 -3.9,-0.5 -0.2,0 -0.4,-0.1 -0.5,-0.1 -1.2,-0.2 -2.4,-0.4 -3.6,-0.6 -0.2,0 -0.5,-0.1 -0.7,-0.1 -1.3,-0.2 -2.5,-0.5 -3.8,-0.8 -0.3,-0.1 -0.5,-0.1 -0.8,-0.2 -1.3,-0.3 -2.6,-0.6 -3.9,-1 v 0 c 1.2,1.8 2.4,3.7 3.5,5.8 4.2,7.4 7.3,14.8 9,19.1 0.7,0.1 1.5,0.2 2.3,0.3 0.3,0 0.5,0.1 0.8,0.1 0.5,0.1 1.1,0.1 1.7,0.2 0.3,0 0.6,0.1 1,0.1 0.5,0.1 1.1,0.1 1.7,0.2 0.4,0 0.7,0.1 1.1,0.1 0.6,0 1.1,0.1 1.7,0.1 0.4,0 0.8,0.1 1.3,0.1 0.6,0 1.1,0.1 1.7,0.1 0.4,0 0.9,0 1.4,0.1 0.6,0 1.1,0.1 1.7,0.1 h 1.5 c 0.6,0 1.2,0 1.8,0.1 h 7.5 c 0.9,0 1.700001,0 2.600001,-0.1 h 1.1 c 0.9,0 1.9,-0.1 2.8,-0.1 h 0.7 c 1.2,-0.1 2.4,-0.1 3.7,-0.2 0.3,0 0.6,0 0.9,-0.1 1,-0.1 2,-0.2 2.9,-0.2 0.4,0 0.8,-0.1 1.2,-0.1 1.1,-0.1 2.2,-0.2 3.3,-0.3 0.3,0 0.5,-0.1 0.8,-0.1 1.3,-0.2 2.7,-0.3 4.1,-0.5 0.4,0 0.7,-0.1 1.1,-0.1 1.1,-0.1 2.2,-0.3 3.3,-0.5 0.4,-0.1 0.9,-0.1 1.3,-0.2 1.2,-0.2 2.5,-0.4 3.7,-0.6 0.3,0 0.5,-0.1 0.8,-0.1 1.5,-0.3 3,-0.5 4.6,-0.8 0.4,-0.1 0.8,-0.2 1.2,-0.2 1.2,-0.2 2.4,-0.5 3.6,-0.7 0.5,-0.1 1,-0.2 1.5,-0.3 1.4,-0.3 2.8,-0.6 4.2,-0.9 0.2,-0.1 0.5,-0.1 0.7,-0.2 1.6,-0.4 3.3,-0.8 5,-1.2 0.5,-0.1 0.9,-0.2 1.4,-0.4 1.3,-0.3 2.6,-0.6 3.9,-1 0.5,-0.1 1.1,-0.3 1.6,-0.4 1.6,-0.4 3.1,-0.8 4.8,-1.3 0.2,-0.1 0.4,-0.1 0.6,-0.2 1.8,-0.5 3.6,-1 5.5,-1.6 0.5,-0.2 1,-0.3 1.6,-0.5 1.4,-0.4 2.8,-0.9 4.2,-1.3 0.6,-0.2 1.2,-0.4 1.7,-0.6 1.8,-0.6 3.5,-1.2 5.3,-1.8 0.2,-0.1 0.3,-0.1 0.5,-0.2 2,-0.7 3.9,-1.4 5.9,-2.1 0.6,-0.2 1.2,-0.4 1.7,-0.6 1.5,-0.5 3,-1.1 4.6,-1.7 0.6,-0.2 1.2,-0.5 1.9,-0.7 2,-0.7 4,-1.5 6,-2.3 0.1,0 0.2,-0.1 0.3,-0.1 2.1,-0.8 4.3,-1.7 6.4,-2.6 0.6,-0.3 1.3,-0.5 1.9,-0.8 1.6,-0.7 3.3,-1.4 4.9,-2.1 0.7,-0.3 1.3,-0.6 2,-0.8 2.2,-1 4.5,-2 6.7,-3 0.9,-3 2.2,-6.7 3.8,-10.8 h -0.4 c -0.6,0 -1.3,-0.1 -1.9,-0.2 -3.7,-0.5 -6.5,-3.5 -8,-8 z"
     id="path226" />
  <path
     class="cls-9"
     d="m 238.58114,71.835086 c 3.9,0.9 6.8,4.1 8.3,9.2 0.2,0.8 0.4,1.7 0.6,2.6 8.9,-12.5 18.6,-18.9 29,-18.9 4.4,0 8.2,1 11.4,3 5.5,-6.7 8.9,-11.2 8.9,-11.2 -4.1,0.7 -12.7,1.9 -12.7,1.9 32.5,-12 29.9,-44.5 29.9,-44.5 0,5.6 -16.8,19.1 -16.8,19.1 0.7,-4.9 -1.9,-11.2 -1.9,-11.2 0.7,6.4 -19.4,22.8 -19.4,22.8 1.5,-3 0.4,-8.2 0.4,-8.2 -1.1,6 -10.1,8.2 -10.1,8.2 5.6,-6.7 16.1,-42.2000002 8.2,-44.5000002 -7.8,-2.2 -18.7,23.2000002 -18.7,23.2000002 -0.4,-6 -3.7,-6 -3.7,-6 1.5,18.7 -13.5,33.6 -13.5,33.6 -1.1,-3.7 -7.1,-5.6 -7.1,-5.6 1.4,3 0.6,13.8 -0.2,21.5 -0.3,3 -0.6,5.5 -0.8,6.9 2,-1.4 4.1,-2.2 6.2,-2.2 0.7,0.1 1.4,0.2 2,0.3 z"
     id="path228" />
  <path
     class="cls-7"
     d="m 230.38114,109.13509 c 1.2,0.3 2.7,-0.4 4.2,-1.8 1,-2.3 2,-4.6 3.2,-7 1,-2.200004 2.1,-4.200004 3.2,-6.200004 0.8,-4.1 0.7,-8.2 -0.2,-11.3 -0.8,-2.7 -2.1,-4.5 -3.5,-4.8 -0.2,0 -0.4,-0.1 -0.5,-0.1 -3.2,0 -8,5.6 -9.8,14 -1,4.4 -1,8.900004 0,12.300004 0.6,2.7 2,4.5 3.4,4.9 z"
     id="path230" />
  <path
     class="cls-4"
     d="m 276.38114,71.135086 c -25.1,0 -41.2,51.300004 -44.3,62.000004 0.9,0.2 1.8,0.5 2.6,0.9 10.8,-3.2 24.7,-4 35.3,-4 8.9,0 15.4,0.5 15.4,0.5 2.8,-3.9 19,-59.400004 -9,-59.400004 z m 6.4,22.8 c -0.2,2.2 -0.8,4 -1.4,5.7 -0.6,1.600004 -1.4,3.100004 -2.1,4.400004 -1.4,2.6 -2.9,4.6 -4,6 -1.1,1.4 -1.8,2.1 -1.8,2.1 0,0 0.2,-1 0.6,-2.6 0.4,-1.7 1,-4 1.7,-6.7 0.3,-1.4 0.6,-2.8 0.9,-4.400004 0.3,-1.5 0.4,-3.1 0.3,-4.5 -0.1,-0.7 -0.2,-1.3 -0.4,-1.6 0,-0.1 -0.1,-0.1 -0.1,-0.2 v 0 l -0.3,-0.1 -0.8,-0.2 c -0.3,-0.1 -0.7,-0.1 -1,-0.2 -0.3,-0.1 -0.6,0 -1,-0.1 -0.3,0 -0.6,0.1 -0.9,0.1 -1.2,0.2 -2.5,0.8 -3.7,1.7 -1.2,0.9 -2.4,2.1 -3.4,3.3 -2.1,2.5 -3.8,5.300004 -5.2,7.700004 -1.4,2.4 -2.6,4.5 -3.4,6 -0.8,1.5 -1.3,2.4 -1.3,2.4 v -0.7 c 0,-0.5 0,-1.1 0.1,-2 0.1,-1.7 0.5,-4.2 1.2,-7.1 0.8,-2.9 2,-6.200004 4.1,-9.600004 1.1,-1.7 2.4,-3.3 4.1,-4.8 1.7,-1.5 4,-2.7 6.5,-3.2 0.6,-0.1 1.3,-0.1 1.9,-0.2 0.6,0 1.3,0 1.9,0.1 0.6,0.1 1.2,0.2 1.8,0.4 l 0.8,0.3 0.4,0.1 h 0.1 l 0.3,0.1 h 0.1 l 0.2,0.1 c 0.1,0 1.6,1 2,1.6 l 0.4,0.5 0.3,0.5 c 0.2,0.4 0.4,0.7 0.5,1.1 0.7,1.7 0.7,2.9 0.6,4 z"
     id="path232" />
  <path
     class="cls-6"
     d="m 276.68114,92.035086 q -0.1,0 0,0 -0.1,0 0,0 v 0 c 0,0.1 0,0 0,0 z"
     id="path234" />
  <path
     class="cls-7"
     d="m 177.48114,195.23509 c 3,0 6.4,-0.8 9.9,-2.4 7.4,-3.3 25.4,-21.4 45.9,-46 0.7,-0.9 1.1,-2 1,-3.2 -0.1,-1.2 -0.7,-2.2 -1.6,-3 -1,-0.8 -2.1,-1 -2.8,-1 -1.3,0 -2.5,0.6 -3.4,1.6 -8.9,10.7 -34,39.5 -42.6,43.6 l -0.1,0.1 c -1.7,0.8 -3.2,1.2 -4.6,1.5 l -3.3,0.5 -2.4,-2.3 c -0.8,-0.8 -1.9,-1.2 -3,-1.2 -0.8,0 -1.6,0.2 -2.3,0.7 -1,0.6 -1.7,1.6 -1.9,2.8 -0.3,1.1 0,2.3 0.6,3.3 0.2,0.4 3.4,5 10.6,5 z"
     id="path236" />
  <path
     class="cls-7"
     d="m 135.68114,196.23509 c -0.7,0 -1.4,0.2 -2.1,0.5 l -1.3,0.7 -1.5,0.1 h -1.1 c -4.1,0 -14.2,-1.3 -35.700001,-10 -23.7,-9.6 -33,-11 -36.5,-11 -0.7,0 -1.1,0.1 -1.2,0.1 -1.2,0.2 -2.2,0.9 -2.8,1.8 -0.7,1 -0.9,2.1 -0.7,3.3 0.4,2.1 2.2,3.6 4.3,3.6 h 1.3 c 2.6,0.2 11,1.7 32.5,10.3 17.400001,7 30.500001,10.6 39.100001,10.6 4.5,0 7.6,-1 9.1,-2.9 0.7,-0.9 1.1,-2 1,-3.2 -0.1,-1.2 -0.7,-2.2 -1.6,-3 -1,-0.7 -2.1,-0.9 -2.8,-0.9 z"
     id="path238" />
  <path
     class="cls-4"
     d="m 67.281139,164.23509 c 0,0 -14.9,-43.9 -35.1,-43.9 -2.6,0 -5.3,0.7 -8.1,2.4 -24.10000017,14.6 9.5,58.9 9.5,58.9 14.7,-10.1 33.7,-17.4 33.7,-17.4 z m -37.6,-11.9 c -0.6,-1.2 -1.2,-2.6 -1.7,-4.2 -0.4,-1.6 -0.9,-3.4 -0.7,-5.5 0.1,-1.1 0.4,-2.3 1.1,-3.5 0.7,-1.2 2,-2.3 3.2,-2.8 l 0.2,-0.1 0.1,-0.1 0.4,-0.1 0.3,-0.1 0.3,-0.1 c 0.1,0 0.5,-0.1 0.7,-0.1 h 1.5 c 0.4,0.1 0.7,0.1 1.1,0.2 1.4,0.4 2.4,1 3.3,1.7 1.8,1.4 3,2.8 4.1,4.3 1.1,1.5 2,3 2.8,4.5 1.6,3 2.8,5.9 3.6,8.5 0.8,2.5 1.3,4.7 1.6,6.3 0.2,0.8 0.2,1.4 0.3,1.8 0,0.4 0.1,0.6 0.1,0.6 0,0 -0.6,-0.7 -1.5,-1.9 -0.9,-1.2 -2.3,-3 -3.8,-5.1 -1.5,-2.1 -3.2,-4.6 -5.1,-7.1 -0.9,-1.3 -1.9,-2.5 -2.9,-3.7 -1,-1.2 -2.1,-2.3 -3.1,-3.1 -0.5,-0.4 -1,-0.6 -1.3,-0.7 h -0.2 0.2 c 0,0 0.1,-0.1 0,-0.1 l -0.3,0.1 h -0.2 c -0.3,0.1 -0.4,0.2 -0.6,0.3 -0.2,0.2 -0.4,0.6 -0.5,1.1 -0.3,1 -0.3,2.5 -0.2,3.8 0.1,1.4 0.3,2.7 0.5,3.9 0.4,2.5 0.9,4.6 1.2,6.2 0.3,1.5 0.5,2.4 0.5,2.4 0,0 -0.2,-0.2 -0.4,-0.5 -0.3,-0.3 -0.7,-0.8 -1.2,-1.4 -0.9,-1.2 -2.2,-3.1 -3.4,-5.5 z"
     id="path240" />
  <path
     class="cls-14"
     d="m 170.98114,300.13509 c 0.2,0 0.5,-0.1 0.7,-0.1 0.3,0 0.5,-0.1 0.8,-0.2 10.6,-2.2 18.5,-8.3 18.6,-14.5 0,-0.4 0,-0.9 -0.1,-1.3 -0.1,-0.8 -0.4,-1.6 -0.8,-2.3 -0.1,-0.3 -0.3,-0.5 -0.5,-0.8 -0.1,-0.1 -0.2,-0.2 -0.2,-0.3 -0.1,-0.1 -0.2,-0.2 -0.3,-0.3 -0.3,-0.3 -0.5,-0.6 -0.8,-0.9 v 0 c -0.2,-0.2 -0.5,-0.4 -0.8,-0.6 v 0 c -1.3,-1 -2.9,-1.9 -4.8,-2.5 -0.1,0 -0.2,-0.1 -0.3,-0.1 -0.3,-0.1 -0.6,-0.2 -0.9,-0.3 -0.1,0 -0.3,-0.1 -0.4,-0.1 -0.3,-0.1 -0.6,-0.2 -0.9,-0.2 -0.2,0 -0.3,-0.1 -0.5,-0.1 -0.3,-0.1 -0.6,-0.1 -0.9,-0.2 -0.2,0 -0.5,-0.1 -0.7,-0.1 -0.4,-0.1 -0.8,-0.1 -1.3,-0.2 -0.3,0 -0.6,-0.1 -0.9,-0.1 h -4.1 c -0.4,0 -0.8,0 -1.1,0.1 h -0.6 c -0.6,0 -1.2,0.1 -1.7,0.2 -0.5,0.1 -1.1,0.1 -1.6,0.2 -0.5,0.1 -1,0.2 -1.5,0.3 -0.1,0 -0.2,0.1 -0.4,0.1 -0.5,0.1 -1,0.2 -1.4,0.3 v 0 c -0.5,0.1 -1,0.3 -1.4,0.4 -0.1,0 -0.2,0.1 -0.3,0.1 -0.5,0.1 -0.9,0.3 -1.4,0.4 v 0 c -0.5,0.2 -0.9,0.3 -1.3,0.5 -0.1,0 -0.2,0.1 -0.3,0.1 -0.9,0.4 -1.7,0.7 -2.5,1.1 -0.1,0 -0.2,0.1 -0.2,0.1 -0.4,0.2 -0.8,0.4 -1.1,0.6 v 0 c -0.3,0.2 -0.6,0.4 -1,0.6 -0.1,0 -0.1,0.1 -0.2,0.1 -0.2,0.2 -0.5,0.3 -0.7,0.5 -0.1,0.1 -0.2,0.1 -0.2,0.2 -0.2,0.2 -0.4,0.3 -0.6,0.5 q -0.1,0.1 -0.2,0.2 c -0.5,0.4 -1,0.9 -1.5,1.3 -0.1,0 -0.1,0.1 -0.1,0.1 -0.2,0.2 -0.3,0.3 -0.5,0.5 q -0.1,0.1 -0.2,0.2 c -0.2,0.2 -0.3,0.3 -0.4,0.5 q -0.1,0.1 -0.2,0.2 c -0.2,0.2 -0.4,0.5 -0.5,0.7 v 0 c -0.2,0.2 -0.3,0.5 -0.5,0.7 0,0.1 -0.1,0.1 -0.1,0.2 -0.1,0.2 -0.2,0.4 -0.3,0.5 0,0.1 -0.1,0.2 -0.1,0.2 -0.1,0.2 -0.2,0.3 -0.2,0.5 0,0.1 -0.1,0.1 -0.1,0.2 -0.1,0.2 -0.2,0.5 -0.2,0.7 v 0 c -0.1,0.2 -0.1,0.5 -0.2,0.7 v 0.2 c 0,0.2 0,0.3 -0.1,0.5 v 1 c 0,0.2 0,0.5 0.1,0.7 0.1,0.4 0.2,0.8 0.3,1.1 1.9,6.4 12.1,9.8 23.6,7.9 z"
     id="path242" />
  <path
     class="cls-14"
     d="m 144.38114,292.33509 c 0.4,2.2 1.6,4 3.6,5.5 0.2,0.2 0.4,0.3 0.6,0.5 3.3,2.3 8.2,3.6 13.9,3.7 2.2,0 4.5,-0.2 6.9,-0.6 7.1,-1.2 13.2,-4.1 16.9,-7.6 0.8,-0.8 1.5,-1.6 2.1,-2.5 0.6,-0.8 1,-1.7 1.3,-2.6 0.3,-0.9 0.5,-1.8 0.5,-2.7 0,-0.4 0,-0.9 -0.1,-1.3 -0.3,-1.8 -1.2,-3.4 -2.6,-4.7 -0.4,-0.3 -0.7,-0.7 -1.2,-1 -0.8,-0.6 -1.8,-1.2 -2.8,-1.6 -1.4,-0.7 -3.1,-1.2 -4.8,-1.6 -0.8,-0.2 -1.6,-0.3 -2.4,-0.4 -1.3,-0.2 -2.7,-0.3 -4.2,-0.3 h -0.1 c -1.5,0 -3,0.1 -4.5,0.2 -0.8,0.1 -1.6,0.2 -2.4,0.3 -2.4,0.4 -4.6,1 -6.7,1.7 -9,3.2 -15,9.2 -14,15 z"
     id="path244" />
  <path
     class="cls-7"
     d="m 165.08114,348.53509 c 0.8,0 1.6,-0.2 2.5,-0.5 4,-1.6 4.2,-8.6 3.2,-15.3 -5.7,1.8 -10.8,4.7 -15.2,7.3 2.4,4.6 5.6,8.5 9.5,8.5 z"
     id="path246" />
  <path
     class="cls-7"
     d="m 184.38114,343.93509 c 0.7,0.2 1.8,0.5 3.2,0.5 3.7,0 8.8,-1.8 8.1,-10.4 -0.1,-0.8 -0.1,-1.8 -0.1,-2.9 -1.7,0 -3.5,0 -5.2,-0.1 -2.9,-0.1 -5.5,-0.1 -7.8,-0.1 -1.8,0 -3.2,0 -4.3,0.2 1.6,6 3.8,11.9 6.1,12.8 z"
     id="path248" />
  <path
     class="cls-13"
     d="m 199.48114,295.43509 c 0,0 -7,16 -26.2,19 -5,0.8 -9.3,1.1 -12.9,1.1 -10.3,0 -15.3,-2.7 -17.8,-5.6 0,0 -18.4,5.3 -20,16.6 -1.2,8.5 7.2,12.8 14.6,12.8 2.5,0 4.9,-0.5 6.7,-1.5 7.4,-4 18.4,-12.6 33.2,-14.5 1.3,-0.2 3.2,-0.2 5.4,-0.2 5,0 11.9,0.3 18.6,0.3 7.6,0 14.9,-0.4 18.9,-2.2 9.1,-4 9.1,-10.7 8.5,-14.1 -0.6,-3.8 -6.1,-11.5 -29,-11.7 z"
     id="path250" />
  <line
     class="cls-2"
     x1="232.36115"
     y1="416.71509"
     x2="232.36115"
     y2="416.55508"
     id="line252" />
  <path
     class="cls-8"
     d="m 139.14114,416.66509 0.5,0.22 v -0.44 z"
     id="path254" />
  <path
     class="cls-8"
     d="m 269.12114,358.83509 -64.89,28.88 -64.59,-28.88 -129.9800012,57.83 v 66.26 l 129.9800012,57.81 64.58,-28.86 h 0.01 l 64.89,28.86 129.37,-57.81 v -66.26 z m -129.48,58.05 -0.5,-0.22 0.5,-0.22 z"
     id="path256" />
  <line
     class="cls-2"
     x1="232.44116"
     y1="413.46509"
     x2="232.44116"
     y2="413.30508"
     id="line258" />
  <polygon
     class="cls-10"
     points="435.34,502.93 490.35,527.4 490.85,527.62 490.85,593.87 360.87,536.06 360.87,469.8 "
     id="polygon260"
     transform="translate(-351.13886,-56.384914)" />
  <polygon
     class="cls-16"
     points="546.1,502.93 555.43,498.75 555.43,565.01 490.85,593.87 490.85,527.62 "
     id="polygon262"
     transform="translate(-351.13886,-56.384914)" />
  <rect
     class="cls-17"
     x="204.29114"
     y="442.36508"
     width="0.0099999998"
     height="66.260002"
     id="rect264" />
  <path
     class="cls-12"
     d="m 269.19114,355.58509 -64.89,28.88 64.78,28.95 -64.78,28.95 9.37,4.18 55.41,24.64 0.11,0.05 55.25,-24.69 74.12,-33.13 z m 27.72,86.38 c 0,4.49 -12.56,8.14 -28.06,8.14 -15.5,0 -28.07,-3.65 -28.07,-8.14 v -12.22 c 0,-4.49 12.56,-8.14 28.07,-8.14 15.51,0 28.06,3.65 28.06,8.14 z m 0.69,-56.8 c 0,4.51 -12.56,8.15 -28.07,8.15 -15.51,0 -28.06,-3.64 -28.06,-8.15 v -12.2 c 0,-4.5 12.56,-8.15 28.06,-8.15 15.5,0 28.07,3.65 28.07,8.15 z m 36.27,36.44 c -15.5,0 -28.06,-3.65 -28.06,-8.15 v -12.21 c 0,-4.49 12.56,-8.14 28.06,-8.14 15.5,0 28.07,3.65 28.07,8.14 v 12.21 c 0,4.5 -12.56,8.15 -28.07,8.15 z"
     id="path266" />
  <path
     class="cls-2"
     d="m 296.91114,429.74509 v 12.22 c 0,4.49 -12.56,8.14 -28.06,8.14 -15.5,0 -28.07,-3.65 -28.07,-8.14 v -12.22 c 0,2.43 3.66,4.62 9.49,6.11 4.94,1.27 11.44,2.04 18.58,2.04 7.14,0 13.62,-0.77 18.57,-2.04 5.81,-1.49 9.49,-3.68 9.49,-6.11 z"
     id="path268" />
  <path
     class="cls-12"
     d="m 297.60114,372.96509 c 0,2.43 -3.66,4.61 -9.46,6.1 -4.94,1.28 -11.47,2.05 -18.61,2.05 -7.14,0 -13.66,-0.77 -18.6,-2.05 -5.81,-1.49 -9.46,-3.67 -9.46,-6.1 0,-4.5 12.56,-8.15 28.06,-8.15 15.5,0 28.07,3.65 28.07,8.15 z"
     id="path270" />
  <path
     class="cls-12"
     d="m 361.94114,401.24509 c 0,2.43 -3.68,4.62 -9.49,6.11 -4.96,1.27 -11.46,2.04 -18.58,2.04 -7.12,0 -13.63,-0.77 -18.57,-2.04 -5.83,-1.49 -9.49,-3.68 -9.49,-6.11 0,-4.49 12.56,-8.14 28.06,-8.14 15.5,0 28.07,3.65 28.07,8.14 z"
     id="path272" />
  <path
     class="cls-12"
     d="m 296.91114,429.74509 c 0,2.43 -3.68,4.62 -9.49,6.11 -4.95,1.27 -11.45,2.04 -18.57,2.04 -7.12,0 -13.64,-0.77 -18.58,-2.04 -5.83,-1.49 -9.49,-3.68 -9.49,-6.11 0,-4.49 12.56,-8.14 28.07,-8.14 15.51,0 28.06,3.65 28.06,8.14 z"
     id="path274" />
  <path
     class="cls-2"
     d="m 361.94114,401.24509 v 12.21 c 0,4.5 -12.56,8.15 -28.07,8.15 -15.51,0 -28.06,-3.65 -28.06,-8.15 v -12.21 c 0,2.43 3.66,4.62 9.49,6.11 4.94,1.27 11.44,2.04 18.57,2.04 7.13,0 13.62,-0.77 18.58,-2.04 5.81,-1.49 9.49,-3.68 9.49,-6.11 z"
     id="path276" />
  <path
     class="cls-2"
     d="m 297.60114,372.96509 v 12.2 c 0,4.51 -12.56,8.15 -28.07,8.15 -15.51,0 -28.06,-3.64 -28.06,-8.15 v -12.2 c 0,2.43 3.65,4.61 9.46,6.1 4.94,1.28 11.46,2.05 18.6,2.05 7.14,0 13.67,-0.77 18.61,-2.05 5.8,-1.49 9.46,-3.67 9.46,-6.1 z"
     id="path278" />
  <path
     class="cls-17"
     d="m 139.21114,413.41509 0.5,0.22 v -0.44 z"
     id="path280" />
  <path
     class="cls-5"
     d="m 204.30114,384.46509 -64.59,28.73 v 0.44 l 64.58,28.73 h 0.01 l 64.78,-28.95 z m 0.08,37.14 c -15.51,0 -28.08,-3.65 -28.08,-8.15 v -12.21 c 0,-4.49 12.57,-8.14 28.07,-8.14 15.5,0 28.06,3.65 28.06,8.14 v 12.06 c 0.02,0.06 0.02,0.1 0.02,0.15 0,4.5 -12.58,8.15 -28.07,8.15 z"
     id="path282" />
  <path
     class="cls-10"
     d="m 139.21114,413.41509 0.5,-0.22 64.59,-28.73 -64.59,-28.88 -129.9800012,57.83 74.4700002,33.13 55.010001,24.47 0.5,0.22 55.25,-24.69 9.33,-4.18 -64.58,-28.73 z m -28.06,-40.45 c 0,-4.5 12.56,-8.15 28.06,-8.15 15.5,0 28.07,3.65 28.07,8.15 v 12.2 c 0,4.51 -12.56,8.15 -28.07,8.15 -15.51,0 -28.06,-3.64 -28.06,-8.15 z m -8.36,40.49 c 0,4.5 -12.560001,8.15 -28.070001,8.15 -15.51,0 -28.06,-3.65 -28.06,-8.15 v -12.21 c 0,-4.49 12.55,-8.14 28.06,-8.14 15.51,0 28.070001,3.65 28.070001,8.14 z m 64.49,16.29 v 12.22 c 0,4.49 -12.56,8.14 -28.07,8.14 -15.51,0 -28.06,-3.65 -28.06,-8.14 v -12.22 c 0,-4.49 12.56,-8.14 28.06,-8.14 15.5,0 28.07,3.65 28.07,8.14 z"
     id="path284" />
  <path
     class="cls-10"
     d="m 167.28114,429.74509 c 0,2.43 -3.68,4.62 -9.49,6.1 -4.94,1.28 -11.44,2.05 -18.58,2.05 -7.14,0 -13.64,-0.77 -18.57,-2.04 -5.83,-1.5 -9.49,-3.68 -9.49,-6.11 0,-4.49 12.56,-8.14 28.06,-8.14 15.5,0 28.07,3.65 28.07,8.14 z"
     id="path286" />
  <path
     class="cls-10"
     d="m 167.28114,372.96509 c 0,2.43 -3.66,4.61 -9.46,6.1 -4.94,1.28 -11.46,2.05 -18.61,2.05 -7.15,0 -13.66,-0.77 -18.6,-2.05 -5.81,-1.49 -9.46,-3.67 -9.46,-6.1 0,-4.5 12.56,-8.15 28.06,-8.15 15.5,0 28.07,3.65 28.07,8.15 z"
     id="path288" />
  <path
     class="cls-10"
     d="m 102.79114,401.24509 c 0,2.43 -3.680001,4.62 -9.490001,6.11 -4.96,1.27 -11.46,2.04 -18.58,2.04 -7.12,0 -13.63,-0.77 -18.58,-2.04 -5.82,-1.49 -9.48,-3.68 -9.48,-6.11 0,-4.49 12.55,-8.14 28.06,-8.14 15.51,0 28.070001,3.65 28.070001,8.14 z"
     id="path290" />
  <path
     class="cls-2"
     d="m 167.28114,372.96509 v 12.2 c 0,4.51 -12.56,8.15 -28.07,8.15 -15.51,0 -28.06,-3.64 -28.06,-8.15 v -12.2 c 0,2.43 3.65,4.61 9.46,6.1 4.94,1.28 11.46,2.05 18.6,2.05 7.14,0 13.67,-0.77 18.61,-2.05 5.8,-1.49 9.46,-3.67 9.46,-6.1 z"
     id="path292" />
  <path
     class="cls-2"
     d="m 167.28114,429.74509 v 12.22 c 0,4.49 -12.56,8.14 -28.07,8.14 -15.51,0 -28.06,-3.65 -28.06,-8.14 v -12.22 c 0,2.43 3.66,4.61 9.49,6.11 4.93,1.27 11.44,2.04 18.57,2.04 7.13,0 13.64,-0.77 18.58,-2.05 5.81,-1.48 9.49,-3.67 9.49,-6.1 z"
     id="path294" />
  <path
     class="cls-2"
     d="m 102.79114,401.24509 v 12.21 c 0,4.5 -12.560001,8.15 -28.070001,8.15 -15.51,0 -28.06,-3.65 -28.06,-8.15 v -12.21 c 0,2.43 3.66,4.62 9.48,6.11 4.95,1.27 11.45,2.04 18.58,2.04 7.13,0 13.62,-0.77 18.58,-2.04 5.81,-1.49 9.490001,-3.68 9.490001,-6.11 z"
     id="path296" />
  <path
     class="cls-5"
     d="m 232.43114,401.24509 c 0,2.43 -3.66,4.61 -9.47,6.1 -4.96,1.28 -11.46,2.05 -18.59,2.05 -7.13,0 -13.62,-0.77 -18.58,-2.04 -5.81,-1.49 -9.49,-3.68 -9.49,-6.11 0,-4.49 12.57,-8.14 28.07,-8.14 15.5,0 28.06,3.65 28.06,8.14 z"
     id="path298" />
  <path
     class="cls-2"
     d="m 232.45114,413.45509 c 0,4.5 -12.58,8.15 -28.07,8.15 -15.49,0 -28.08,-3.65 -28.08,-8.15 v -12.21 c 0,2.43 3.68,4.62 9.49,6.11 4.96,1.27 11.46,2.04 18.58,2.04 7.12,0 13.63,-0.77 18.59,-2.05 5.81,-1.49 9.47,-3.67 9.47,-6.1 v 12.06 c 0.02,0.06 0.02,0.1 0.02,0.15 z"
     id="path300" />
  <polygon
     class="cls-5"
     points="564.81,502.93 620.22,527.57 620.33,527.62 620.33,593.87 555.44,565.01 555.44,498.75 "
     id="polygon302"
     transform="translate(-351.13886,-56.384914)" />
  <rect
     class="cls-17"
     x="204.29114"
     y="442.36508"
     width="0.0099999998"
     height="66.260002"
     id="rect304" />
  <polygon
     class="cls-15"
     points="675.58,502.93 749.7,469.8 749.7,536.06 620.33,593.87 620.33,527.62 "
     id="polygon306"
     transform="translate(-351.13886,-56.384914)" />
  <path
     class="cls-11"
     d="m 300.05114,331.37509 -18.97,-18.95 c 13.78,-18.01 12.49,-43.86 -3.99,-60.34 -17.94,-17.93 -47.02,-17.93 -64.97,0 -17.93,17.94 -17.93,47.03 0,64.96 16.48,16.47 42.34,17.78 60.35,3.99 l 18.97,18.96 z"
     id="path308" />
  <path
     class="cls-7"
     d="m 218.96114,310.21509 c -14.16,-14.17 -14.16,-37.15 0,-51.31 14.16,-14.16 37.12,-14.16 51.3,0 14.16,14.16 14.16,37.12 0,51.31 -14.19,14.16 -37.14,14.16 -51.3,0 z"
     id="path310" />
  <path
     id="SVGID"
     class="cls-9"
     d="m 325.05114,348.97509 -25.53,-25.59 c -6.5,-6.5 -22.18,9.77 -15.97,15.97 0.03,0.03 25.53,25.59 25.53,25.59 2.64,2.63 8.36,1.19 12.75,-3.23 4.41,-4.4 5.85,-10.11 3.22,-12.74 z" />
  <path
     class="cls-9"
     d="m 325.05114,348.97509 -25.53,-25.59 c -6.5,-6.5 -22.18,9.77 -15.97,15.97 0.03,0.03 25.53,25.59 25.53,25.59 2.64,2.63 8.36,1.19 12.75,-3.23 4.41,-4.4 5.85,-10.11 3.22,-12.74 z"
     id="path313" />
  <g
     class="cls-3"
     clip-path="url(#clippath)"
     id="g317"
     transform="translate(-351.13886,-56.384914)">
    <path
       class="cls-9"
       d="m 660.89,420.6 c 0.18,-2.04 1.51,-4.45 2.37,-5.81 2.57,-4.07 5.8,-7.44 10.62,-8.72 4.9,-1.31 5.39,2.38 4.22,6.12 -1.41,4.51 -4.22,7.9 -8.36,10.27 -0.97,0.56 -2.26,1.35 -3.38,1.52 -2.74,0.39 -5.76,0.04 -5.47,-3.38 z"
       id="path315" />
  </g>
  <path
     class="cls-13"
     d="m 338.47114,367.85509 c 13.89,-7.66 22.55,-21.06 21.26,-32.69 l -0.05,-0.4 c 0,0 -0.02,-2.32 -0.42,-5.29 -0.86,-6.24 -3.3,-13.78 -9.79,-14 -4.55,-0.08 -6.57,2.11 -10.26,6.86 -4.32,5.34 -10.17,12.7 -23.97,16.61 -15.85,4.39 -23.53,9.48 -22.77,15.03 v 0 c 0.35,2.58 2.59,7.11 11.09,13.92 10.43,8.36 24.87,5.47 34.92,-0.04 z"
     id="path319" />
</svg>
